#define favicon_mask_width 16
#define favicon_mask_height 16
static unsigned char favicon_mask_bits[] = {
   0xf0, 0x03, 0xf8, 0x07, 0xf8, 0x0f, 0xfc, 0x7f, 0xfc, 0x7f, 0xfe, 0x3f,
   0xff, 0x3f, 0xfe, 0x7f, 0xfe, 0x7f, 0xfe, 0x7f, 0xfe, 0x7f, 0xfe, 0x3f,
   0xfc, 0x1f, 0xfc, 0x3f, 0xfe, 0x3f, 0xfe, 0x3f };
