#define favicon_width 16
#define favicon_height 16
static unsigned char favicon_bits[] = {
   0x00, 0x00, 0x00, 0x00, 0x00, 0x00, 0xf0, 0x0f, 0xf0, 0x0f, 0x70, 0x00,
   0x30, 0x00, 0xf8, 0x0f, 0xf8, 0x07, 0x78, 0x04, 0x18, 0x00, 0xfc, 0x0b,
   0xfc, 0x03, 0x00, 0x00, 0x00, 0x01, 0x00, 0x00 };
