#define folder_mask_width 16
#define folder_mask_height 16
static unsigned char folder_mask_bits[] = {
   0x00, 0x00, 0x3f, 0x00, 0xff, 0x7f, 0xff, 0x7f, 0xff, 0xff, 0xff, 0xff,
   0xff, 0xff, 0xff, 0xff, 0xff, 0xff, 0xff, 0xff, 0xff, 0xff, 0xff, 0x7f,
   0xff, 0x7f, 0xff, 0x7f, 0xfe, 0x7f, 0x00, 0x00 };
